<svg width="145" height="141" viewBox="0 0 145 141" fill="none" xmlns="http://www.w3.org/2000/svg">
<g filter="url(#filter0_d_77_78)">
<path d="M95 72C95 74.7578 94.418 77.4885 93.2873 80.0364C92.1566 82.5842 90.4992 84.8992 88.4099 86.8492C86.3206 88.7993 83.8402 90.3461 81.1104 91.4015C78.3806 92.4568 75.4547 93 72.5 93C69.5453 93 66.6194 92.4568 63.8896 91.4015C61.1598 90.3461 58.6794 88.7993 56.5901 86.8492C54.5008 84.8992 52.8434 82.5842 51.7127 80.0364C50.582 77.4885 50 74.7578 50 72L72.5 72H95Z" fill="#BF3838"/>
<path d="M140.845 71C138.461 105.628 108.774 133 72.5 133C36.2263 133 6.53879 105.628 4.15527 71H140.845ZM13 73.5C13 80.9197 14.5391 88.2672 17.5293 95.1221C20.5194 101.977 24.902 108.205 30.4268 113.451C35.9518 118.698 42.5116 122.86 49.7305 125.699C56.9493 128.539 64.6864 130 72.5 130C80.3136 130 88.0507 128.539 95.2695 125.699C102.488 122.86 109.048 118.698 114.573 113.451C120.098 108.205 124.481 101.977 127.471 95.1221C130.461 88.2672 132 80.9197 132 73.5H13ZM72.5 0C108.424 0 137.887 26.8462 140.768 61H92.2842C91.2519 59.221 89.9487 57.5863 88.4102 56.1504C86.3209 54.2004 83.8402 52.654 81.1104 51.5986C78.3805 50.5433 75.4547 50 72.5 50C69.5453 50 66.6195 50.5433 63.8896 51.5986C61.1598 52.654 58.6791 54.2004 56.5898 56.1504C55.0513 57.5863 53.7481 59.221 52.7158 61H4.23242C7.11274 26.8462 36.5762 0 72.5 0Z" fill="#BF3838"/>
</g>
<defs>
<filter id="filter0_d_77_78" x="0.155273" y="0" width="144.689" height="141" filterUnits="userSpaceOnUse" color-interpolation-filters="sRGB">
<feFlood flood-opacity="0" result="BackgroundImageFix"/>
<feColorMatrix in="SourceAlpha" type="matrix" values="0 0 0 0 0 0 0 0 0 0 0 0 0 0 0 0 0 0 127 0" result="hardAlpha"/>
<feOffset dy="4"/>
<feGaussianBlur stdDeviation="2"/>
<feComposite in2="hardAlpha" operator="out"/>
<feColorMatrix type="matrix" values="0 0 0 0 0 0 0 0 0 0 0 0 0 0 0 0 0 0 0.25 0"/>
<feBlend mode="normal" in2="BackgroundImageFix" result="effect1_dropShadow_77_78"/>
<feBlend mode="normal" in="SourceGraphic" in2="effect1_dropShadow_77_78" result="shape"/>
</filter>
</defs>
</svg>
